<svg xmlns="http://www.w3.org/2000/svg" width="24" height="24" fill="none" viewBox="0 0 24 24"><path fill="#fff" d="M7.95343 21.1394C4.89586 21.1304 2.25471 19.458 0.987296 16.2895C-0.280118 13.121 0.108924 9.16314 1.74363 5.61505C4.8012 5.62409 7.44235 7.29648 8.70976 10.465C9.97718 13.6335 9.58814 17.5914 7.95343 21.1394Z"/><path fill="url(#paint0_radial_101_2703)" d="M7.95343 21.1394C4.89586 21.1304 2.25471 19.458 0.987296 16.2895C-0.280118 13.121 0.108924 9.16314 1.74363 5.61505C4.8012 5.62409 7.44235 7.29648 8.70976 10.465C9.97718 13.6335 9.58814 17.5914 7.95343 21.1394Z"/><path fill="#000" fill-opacity=".5" d="M7.95343 21.1394C4.89586 21.1304 2.25471 19.458 0.987296 16.2895C-0.280118 13.121 0.108924 9.16314 1.74363 5.61505C4.8012 5.62409 7.44235 7.29648 8.70976 10.465C9.97718 13.6335 9.58814 17.5914 7.95343 21.1394Z" style="mix-blend-mode:hard-light"/><path fill="url(#paint1_linear_101_2703)" fill-opacity=".5" d="M7.95343 21.1394C4.89586 21.1304 2.25471 19.458 0.987296 16.2895C-0.280118 13.121 0.108924 9.16314 1.74363 5.61505C4.8012 5.62409 7.44235 7.29648 8.70976 10.465C9.97718 13.6335 9.58814 17.5914 7.95343 21.1394Z" style="mix-blend-mode:hard-light"/><path stroke="url(#paint2_linear_101_2703)" stroke-opacity=".05" stroke-width=".056" d="M8.68359 10.4755C9.94543 13.63 9.56145 17.5723 7.9354 21.1112C4.89702 21.0957 2.27411 19.4306 1.01347 16.279C-0.248375 13.1245 0.135612 9.18218 1.76165 5.64328C4.80004 5.65883 7.42295 7.32386 8.68359 10.4755Z"/><path fill="#fff" d="M7.31038 21.2574C11.3543 20.2215 14.8836 17.3754 16.6285 13.2361C18.3735 9.09671 17.9448 4.58749 15.8598 0.976291C11.8159 2.01214 8.2866 4.85826 6.54167 8.99762C4.79674 13.137 5.2254 17.6462 7.31038 21.2574Z"/><path fill="url(#paint3_radial_101_2703)" d="M7.31038 21.2574C11.3543 20.2215 14.8836 17.3754 16.6285 13.2361C18.3735 9.09671 17.9448 4.58749 15.8598 0.976291C11.8159 2.01214 8.2866 4.85826 6.54167 8.99762C4.79674 13.137 5.2254 17.6462 7.31038 21.2574Z"/><path stroke="url(#paint4_linear_101_2703)" stroke-opacity=".05" stroke-width=".056" d="M16.6026 13.2251C14.8642 17.349 11.3512 20.1866 7.32411 21.2248C5.25257 17.624 4.82926 13.1324 6.56764 9.00855C8.30603 4.88472 11.819 2.04706 15.8461 1.00889C17.9176 4.60967 18.3409 9.10131 16.6026 13.2251Z"/><path fill="#fff" d="M7.23368 21.2069C9.78906 23.2373 13.2102 23.9506 16.5772 22.8141C19.9441 21.6775 22.5058 18.9445 23.7304 15.6382C21.175 13.6078 17.7538 12.8944 14.3869 14.031C11.0199 15.1676 8.45822 17.9006 7.23368 21.2069Z"/><path fill="url(#paint5_radial_101_2703)" d="M7.23368 21.2069C9.78906 23.2373 13.2102 23.9506 16.5772 22.8141C19.9441 21.6775 22.5058 18.9445 23.7304 15.6382C21.175 13.6078 17.7538 12.8944 14.3869 14.031C11.0199 15.1676 8.45822 17.9006 7.23368 21.2069Z"/><path fill="#000" fill-opacity=".2" d="M7.23368 21.2069C9.78906 23.2373 13.2102 23.9506 16.5772 22.8141C19.9441 21.6775 22.5058 18.9445 23.7304 15.6382C21.175 13.6078 17.7538 12.8944 14.3869 14.031C11.0199 15.1676 8.45822 17.9006 7.23368 21.2069Z" style="mix-blend-mode:hard-light"/><path fill="url(#paint6_linear_101_2703)" fill-opacity=".5" d="M7.23368 21.2069C9.78906 23.2373 13.2102 23.9506 16.5772 22.8141C19.9441 21.6775 22.5058 18.9445 23.7304 15.6382C21.175 13.6078 17.7538 12.8944 14.3869 14.031C11.0199 15.1676 8.45822 17.9006 7.23368 21.2069Z" style="mix-blend-mode:hard-light"/><path stroke="url(#paint7_linear_101_2703)" stroke-opacity=".05" stroke-width=".056" d="M16.5682 22.7874C13.2176 23.9184 9.81361 23.2124 7.2672 21.1975C8.49194 17.9068 11.0444 15.189 14.3959 14.0577C17.7465 12.9266 21.1504 13.6326 23.6968 15.6476C22.4721 18.9383 19.9196 21.656 16.5682 22.7874Z"/><defs><radialGradient id="paint0_radial_101_2703" cx="0" cy="0" r="1" gradientTransform="translate(-3.00503 15.023) rotate(-10.029) scale(17.9572 17.784)" gradientUnits="userSpaceOnUse"><stop stop-color="#00B0BB"/><stop offset="1" stop-color="#00DB65"/></radialGradient><linearGradient id="paint1_linear_101_2703" x1="7.39" x2="1.63" y1="4.813" y2="18.689" gradientUnits="userSpaceOnUse"><stop stop-color="#18E299"/><stop offset="1"/></linearGradient><linearGradient id="paint2_linear_101_2703" x1="7.948" x2="1.761" y1="8.016" y2="18.746" gradientUnits="userSpaceOnUse"><stop/><stop offset="1" stop-opacity="0"/></linearGradient><radialGradient id="paint3_radial_101_2703" cx="0" cy="0" r="1" gradientTransform="translate(8.11404 20.8822) rotate(-75.7542) scale(21.6246 23.7772)" gradientUnits="userSpaceOnUse"><stop stop-color="#0BB"/><stop offset=".713" stop-color="#00DB65"/></radialGradient><linearGradient id="paint4_linear_101_2703" x1="7.602" x2="15.556" y1="5.871" y2="16.372" gradientUnits="userSpaceOnUse"><stop/><stop offset="1" stop-opacity="0"/></linearGradient><radialGradient id="paint5_radial_101_2703" cx="0" cy="0" r="1" gradientTransform="translate(7.84537 21.5181) rotate(-20.3525) scale(18.5603 17.32)" gradientUnits="userSpaceOnUse"><stop stop-color="#00B0BB"/><stop offset="1" stop-color="#00DB65"/></radialGradient><linearGradient id="paint6_linear_101_2703" x1="16.808" x2="10.041" y1="13.007" y2="22.994" gradientUnits="userSpaceOnUse"><stop stop-color="#00B1BC"/><stop offset="1"/></linearGradient><linearGradient id="paint7_linear_101_2703" x1="16.808" x2="14.169" y1="13.007" y2="23.841" gradientUnits="userSpaceOnUse"><stop/><stop offset="1" stop-opacity="0"/></linearGradient></defs></svg>