<svg xmlns="http://www.w3.org/2000/svg" width="700" height="320" fill="none" viewBox="0 0 700 320"><g clip-path="url(#clip0_2862_30)"><rect width="700" height="320" fill="url(#paint0_linear_2862_30)" rx="16"/><path fill="#fff" d="M311.889 247.3C283.097 247.215 258.226 231.466 246.292 201.629C234.357 171.793 238.02 134.523 253.414 101.112C282.206 101.197 307.077 116.945 319.011 146.782C330.946 176.619 327.283 213.888 311.889 247.3Z"/><path fill="url(#paint1_radial_2862_30)" d="M311.889 247.3C283.097 247.215 258.226 231.466 246.292 201.629C234.357 171.793 238.02 134.523 253.414 101.112C282.206 101.197 307.077 116.945 319.011 146.782C330.946 176.619 327.283 213.888 311.889 247.3Z"/><path fill="#000" fill-opacity=".5" d="M311.889 247.3C283.097 247.215 258.226 231.466 246.292 201.629C234.357 171.793 238.02 134.523 253.414 101.112C282.206 101.197 307.077 116.945 319.011 146.782C330.946 176.619 327.283 213.888 311.889 247.3Z" style="mix-blend-mode:hard-light"/><path fill="url(#paint2_linear_2862_30)" fill-opacity=".5" d="M311.889 247.3C283.097 247.215 258.226 231.466 246.292 201.629C234.357 171.793 238.02 134.523 253.414 101.112C282.206 101.197 307.077 116.945 319.011 146.782C330.946 176.619 327.283 213.888 311.889 247.3Z" style="mix-blend-mode:hard-light"/><path stroke="url(#paint3_linear_2862_30)" stroke-opacity=".05" stroke-width=".531" d="M311.72 247.034C283.108 246.887 258.409 231.208 246.538 201.531C234.656 171.825 238.271 134.702 253.583 101.377C282.195 101.524 306.894 117.203 318.765 146.88C330.647 176.586 327.031 213.709 311.72 247.034Z"/><path fill="#fff" d="M305.839 247.174C343.92 237.419 377.154 210.619 393.585 171.64C410.017 132.661 405.98 90.1988 386.347 56.1934C348.266 65.9477 315.032 92.7486 298.601 131.728C282.169 170.706 286.206 213.168 305.839 247.174Z"/><path fill="url(#paint4_radial_2862_30)" d="M305.839 247.174C343.92 237.419 377.154 210.619 393.585 171.64C410.017 132.661 405.98 90.1988 386.347 56.1934C348.266 65.9477 315.032 92.7486 298.601 131.728C282.169 170.706 286.206 213.168 305.839 247.174Z"/><path stroke="url(#paint5_linear_2862_30)" stroke-opacity=".05" stroke-width=".531" d="M393.341 171.537C376.971 210.369 343.89 237.091 305.969 246.867C286.462 212.959 282.476 170.663 298.845 131.831C315.215 92.9978 348.295 66.2765 386.217 56.5004C405.724 90.4077 409.71 132.704 393.341 171.537Z"/><path fill="#fff" d="M305.686 246.995C329.749 266.114 361.965 272.832 393.67 262.129C425.376 251.426 449.499 225.691 461.03 194.556C436.967 175.437 404.751 168.719 373.045 179.422C341.34 190.125 317.217 215.86 305.686 246.995Z"/><path fill="url(#paint6_radial_2862_30)" d="M305.686 246.995C329.749 266.114 361.965 272.832 393.67 262.129C425.376 251.426 449.499 225.691 461.03 194.556C436.967 175.437 404.751 168.719 373.045 179.422C341.34 190.125 317.217 215.86 305.686 246.995Z"/><path fill="#000" fill-opacity=".2" d="M305.686 246.995C329.749 266.114 361.965 272.832 393.67 262.129C425.376 251.426 449.499 225.691 461.03 194.556C436.967 175.437 404.751 168.719 373.045 179.422C341.34 190.125 317.217 215.86 305.686 246.995Z" style="mix-blend-mode:hard-light"/><path fill="url(#paint7_linear_2862_30)" fill-opacity=".5" d="M305.686 246.995C329.749 266.114 361.965 272.832 393.67 262.129C425.376 251.426 449.499 225.691 461.03 194.556C436.967 175.437 404.751 168.719 373.045 179.422C341.34 190.125 317.217 215.86 305.686 246.995Z" style="mix-blend-mode:hard-light"/><path stroke="url(#paint8_linear_2862_30)" stroke-opacity=".05" stroke-width=".531" d="M393.586 261.878C362.034 272.529 329.98 265.88 306.002 246.907C317.534 215.919 341.57 190.327 373.13 179.673C404.681 169.023 436.735 175.671 460.714 194.644C449.181 225.632 425.145 251.224 393.586 261.878Z"/><g filter="url(#filter0_f_2862_30)" opacity=".8"><circle cx="660" cy="-60" r="160" fill="#18E244" fill-opacity=".4"/></g><g filter="url(#filter1_f_2862_30)" opacity=".8"><circle cx="20" cy="213" r="160" fill="#18CAE2" fill-opacity=".33"/></g><g filter="url(#filter2_f_2862_30)" opacity=".8"><circle cx="660" cy="480" r="160" fill="#18E2B2" fill-opacity=".52"/></g><g filter="url(#filter3_f_2862_30)" opacity=".8"><circle cx="20" cy="413" r="160" fill="#4018E2" fill-opacity=".22"/></g><path stroke="url(#paint9_radial_2862_30)" stroke-dasharray="4 4" d="M0 50H700" opacity=".2"/><path stroke="url(#paint10_radial_2862_30)" stroke-dasharray="4 4" d="M0 82H700" opacity=".1"/><path stroke="url(#paint11_radial_2862_30)" stroke-dasharray="4 4" d="M239 0L239 320" opacity=".2"/><path stroke="url(#paint12_radial_2862_30)" stroke-dasharray="4 4" d="M271 0L271 320" opacity=".1"/><path stroke="url(#paint13_radial_2862_30)" stroke-dasharray="4 4" d="M461 0L461 320" opacity=".2"/><path stroke="url(#paint14_radial_2862_30)" stroke-dasharray="4 4" d="M429 0L429 320" opacity=".1"/><path stroke="url(#paint15_radial_2862_30)" stroke-dasharray="4 4" d="M0 271H700" opacity=".2"/><path stroke="url(#paint16_radial_2862_30)" stroke-dasharray="4 4" d="M0 239H700" opacity=".1"/><g style="mix-blend-mode:overlay" opacity=".1"><path stroke="url(#paint17_linear_2862_30)" d="M0 160H700"/></g><g style="mix-blend-mode:overlay" opacity=".2"><path stroke="url(#paint18_linear_2862_30)" d="M511 -1L189 321"/></g><g style="mix-blend-mode:overlay" opacity=".2"><path stroke="url(#paint19_linear_2862_30)" d="M511 321L189 -1"/></g><g style="mix-blend-mode:overlay" opacity=".1"><circle cx="350" cy="160" r="111" stroke="#fff"/></g><g style="mix-blend-mode:overlay" opacity=".1"><circle cx="350" cy="160" r="79" stroke="#fff"/></g></g><defs><filter id="filter0_f_2862_30" width="800" height="800" x="260" y="-460" color-interpolation-filters="sRGB" filterUnits="userSpaceOnUse"><feFlood flood-opacity="0" result="BackgroundImageFix"/><feBlend in="SourceGraphic" in2="BackgroundImageFix" mode="normal" result="shape"/><feGaussianBlur result="effect1_foregroundBlur_2862_30" stdDeviation="120"/></filter><filter id="filter1_f_2862_30" width="800" height="800" x="-380" y="-187" color-interpolation-filters="sRGB" filterUnits="userSpaceOnUse"><feFlood flood-opacity="0" result="BackgroundImageFix"/><feBlend in="SourceGraphic" in2="BackgroundImageFix" mode="normal" result="shape"/><feGaussianBlur result="effect1_foregroundBlur_2862_30" stdDeviation="120"/></filter><filter id="filter2_f_2862_30" width="800" height="800" x="260" y="80" color-interpolation-filters="sRGB" filterUnits="userSpaceOnUse"><feFlood flood-opacity="0" result="BackgroundImageFix"/><feBlend in="SourceGraphic" in2="BackgroundImageFix" mode="normal" result="shape"/><feGaussianBlur result="effect1_foregroundBlur_2862_30" stdDeviation="120"/></filter><filter id="filter3_f_2862_30" width="800" height="800" x="-380" y="13" color-interpolation-filters="sRGB" filterUnits="userSpaceOnUse"><feFlood flood-opacity="0" result="BackgroundImageFix"/><feBlend in="SourceGraphic" in2="BackgroundImageFix" mode="normal" result="shape"/><feGaussianBlur result="effect1_foregroundBlur_2862_30" stdDeviation="120"/></filter><linearGradient id="paint0_linear_2862_30" x1="0" x2="710.784" y1="320" y2="26.079" gradientUnits="userSpaceOnUse"><stop stop-color="#18E299" stop-opacity=".09"/><stop offset=".729" stop-color="#0D9373" stop-opacity=".08"/></linearGradient><radialGradient id="paint1_radial_2862_30" cx="0" cy="0" r="1" gradientTransform="translate(208.697 189.703) rotate(-10.029) scale(169.097 167.466)" gradientUnits="userSpaceOnUse"><stop stop-color="#00B0BB"/><stop offset="1" stop-color="#00DB65"/></radialGradient><linearGradient id="paint2_linear_2862_30" x1="306.587" x2="252.341" y1="93.56" y2="224.228" gradientUnits="userSpaceOnUse"><stop stop-color="#18E299"/><stop offset="1"/></linearGradient><linearGradient id="paint3_linear_2862_30" x1="311.84" x2="253.579" y1="123.717" y2="224.761" gradientUnits="userSpaceOnUse"><stop/><stop offset="1" stop-opacity="0"/></linearGradient><radialGradient id="paint4_radial_2862_30" cx="0" cy="0" r="1" gradientTransform="translate(313.407 243.64) rotate(-75.7542) scale(203.632 223.902)" gradientUnits="userSpaceOnUse"><stop stop-color="#0BB"/><stop offset=".713" stop-color="#00DB65"/></radialGradient><linearGradient id="paint5_linear_2862_30" x1="308.586" x2="383.487" y1="102.284" y2="201.169" gradientUnits="userSpaceOnUse"><stop/><stop offset="1" stop-opacity="0"/></linearGradient><radialGradient id="paint6_radial_2862_30" cx="0" cy="0" r="1" gradientTransform="translate(311.446 249.925) rotate(-20.3524) scale(174.776 163.096)" gradientUnits="userSpaceOnUse"><stop stop-color="#00B0BB"/><stop offset="1" stop-color="#00DB65"/></radialGradient><linearGradient id="paint7_linear_2862_30" x1="395.842" x2="332.121" y1="169.781" y2="263.82" gradientUnits="userSpaceOnUse"><stop stop-color="#00B1BC"/><stop offset="1"/></linearGradient><linearGradient id="paint8_linear_2862_30" x1="395.842" x2="370.99" y1="169.781" y2="271.799" gradientUnits="userSpaceOnUse"><stop/><stop offset="1" stop-opacity="0"/></linearGradient><radialGradient id="paint9_radial_2862_30" cx="0" cy="0" r="1" gradientTransform="translate(350 50) scale(398.125 182)" gradientUnits="userSpaceOnUse"><stop offset=".349" stop-color="#84FFD3"/><stop offset=".88" stop-color="#18E299" stop-opacity="0"/></radialGradient><radialGradient id="paint10_radial_2862_30" cx="0" cy="0" r="1" gradientTransform="translate(350 82) scale(398.125 182)" gradientUnits="userSpaceOnUse"><stop offset=".349" stop-color="#84FFD3"/><stop offset=".88" stop-color="#18E299" stop-opacity="0"/></radialGradient><radialGradient id="paint11_radial_2862_30" cx="0" cy="0" r="1" gradientTransform="translate(239 160) rotate(90) scale(182 182)" gradientUnits="userSpaceOnUse"><stop offset=".349" stop-color="#84FFD3"/><stop offset=".88" stop-color="#18E299" stop-opacity="0"/></radialGradient><radialGradient id="paint12_radial_2862_30" cx="0" cy="0" r="1" gradientTransform="translate(271 160) rotate(90) scale(182 182)" gradientUnits="userSpaceOnUse"><stop offset=".349" stop-color="#84FFD3"/><stop offset=".88" stop-color="#18E299" stop-opacity="0"/></radialGradient><radialGradient id="paint13_radial_2862_30" cx="0" cy="0" r="1" gradientTransform="translate(461 160) rotate(90) scale(182 182)" gradientUnits="userSpaceOnUse"><stop offset=".349" stop-color="#84FFD3"/><stop offset=".88" stop-color="#18E299" stop-opacity="0"/></radialGradient><radialGradient id="paint14_radial_2862_30" cx="0" cy="0" r="1" gradientTransform="translate(429 160) rotate(90) scale(182 182)" gradientUnits="userSpaceOnUse"><stop offset=".349" stop-color="#84FFD3"/><stop offset=".88" stop-color="#18E299" stop-opacity="0"/></radialGradient><radialGradient id="paint15_radial_2862_30" cx="0" cy="0" r="1" gradientTransform="translate(350 271) scale(398.125 182)" gradientUnits="userSpaceOnUse"><stop offset=".349" stop-color="#84FFD3"/><stop offset=".88" stop-color="#18E299" stop-opacity="0"/></radialGradient><radialGradient id="paint16_radial_2862_30" cx="0" cy="0" r="1" gradientTransform="translate(350 239) scale(398.125 182)" gradientUnits="userSpaceOnUse"><stop offset=".349" stop-color="#84FFD3"/><stop offset=".88" stop-color="#18E299" stop-opacity="0"/></radialGradient><linearGradient id="paint17_linear_2862_30" x1="0" x2="700" y1="160" y2="160" gradientUnits="userSpaceOnUse"><stop stop-color="#fff" stop-opacity=".1"/><stop offset=".5" stop-color="#fff"/><stop offset="1" stop-color="#fff" stop-opacity=".1"/></linearGradient><linearGradient id="paint18_linear_2862_30" x1="511" x2="189" y1="-1" y2="321" gradientUnits="userSpaceOnUse"><stop stop-color="#fff" stop-opacity=".1"/><stop offset=".5" stop-color="#fff"/><stop offset="1" stop-color="#fff" stop-opacity=".1"/></linearGradient><linearGradient id="paint19_linear_2862_30" x1="511" x2="189" y1="321" y2="-1" gradientUnits="userSpaceOnUse"><stop stop-color="#fff" stop-opacity=".1"/><stop offset=".5" stop-color="#fff"/><stop offset="1" stop-color="#fff" stop-opacity=".1"/></linearGradient><clipPath id="clip0_2862_30"><rect width="700" height="320" fill="#fff" rx="16"/></clipPath></defs></svg>